<?xml version="1.0" encoding="UTF-8"?>
<svg version="1.1" viewBox="0 0 1944 2048" width="150" height="158" xmlns="http://www.w3.org/2000/svg">
<path transform="translate(970)" d="m0 0h16l8 5 27 12 21 11 17 10 16 11 19 14 14 12 8 7 13 12 11 12 9 10 12 16 13 18 12 18 14 24 17 33 12 27 6 14 8 10 1 3 4 2 21 13 26 14 18 10 178 89 28 13 166 83 19 10 56 29 19 10 58 32 28 17 23 14 12 8 18 13 11 9 9 9 6 5v30l-15 34-8 12-11 13-9 8-10 6-7 2-12-3-14-8-10-8-10-9-8-7-13-11-9-6-3-1h-10l-6 4-15 15-7 10-4 10 2 9 5 6 10 7 16 6 34 8 22 5 20 6 19 8 11 9 5 10 2 9 3 39v38l-2 27-5 28-7 28-10 25-8 13-8 11-9 10-7 6-12 6-18 5-6 1h-30l-24-2-29-7-27-8-20-7-30-13-18-10-19-12-22-13-12-5-8 1-11 7-14 14-14 21-8 15-7 18-2 9v8l3 10 6 8 8 6 16 4 8 1 22 1 111-3h49l42 2 21 2 15 4 12 7 6 7 4 9v50l-1 54-2 21-4 16-6 16-9 16-9 11-11 11-11 8-19 9-18 5-21 4-25 2h-17l-23-1-29-4-48-9-40-10-39-11-39-14 1 4 13 23 12 24 18 41 12 30 17 44 18 50 16 49 9 32 8 35 6 34 5 37 3 37 1 31v29l-1 29-3 36-9 65-7 34-11 46-5 19-1 1h-10l-16-6-33-11-29-8-56-18-35-12-3-4v-12l3-24 2-24 1-24 1-42v-30l-2-58-7-50-6-34-10-40-15-53-22-76-17-60-13-45-17-57-9-31-9-30-11-35-8-22-4-8-6-2-2 23-2 21-2 37v42l2 51 5 75 6 79 7 72 3 48v106l-2 52-4 51-2 17-1 21-1 7-6-1-29-13-42-19-52-24-46-23-22-13-4-4 4-16 4-22 5-37 4-46 2-40v-111l-6-135-3-82v-125l3-74 4-64 3-35 6-45-7 6-10 15-11 19-17 33-9 19-13 32-10 28-10 30-10 36-11 45-9 48-6 39-7 67-9 86-5 39-10 71-15 80-7 31-3 16-4-1-18-12-14-10-20-13-25-17-17-12-16-12-13-10-22-15-17-13-20-16-2-6 5-25 6-31 7-38 10-53 23-139 7-46 9-44 7-29 9-31 12-37 15-40 14-34 9-20 17-35 8-15 8-16 15-27 11-18 13-22 11-18 16-23 9-13 14-20 10-14 11-13 9-11 6-9-27 9-30 13-17 8-18 10-17 11-15 10-15 11-12 10-14 11-12 11-8 7h-2v2l-25 25-8 10-11 12-9 11-10 13-16 23-12 19-13 22-14 25-12 24-13 30-11 27-15 44-17 60-11 41-17 69-10 41-14 63-4 22-2 6-7-6-7-7-9-11-15-15-7-8-22-22-7-8-11-11-7-8-11-12-7-8-27-30-9-11-10-11-9-11-14-15-5-8v-12l8-38 8-30 16-49 16-40 11-26 11-24 8-16 12-23 10-17 6-10 17-28 7-10 13-19 14-19 14-18 11-14 9-11 9-10 7-8 11-12h2l2-4 12-13 11-11 8-7 13-13 8-7 15-13 14-12 10-8 16-12 19-14 14-10 19-12 17-11 32-19 34-18 28-13 19-8 22-9 20-8 8-4 1-2-12-1h-34l-51 3-36 4-35 7-28 7-34 10-33 12-30 13-30 14-22 12-18 10-38 24-23 16-17 12-19 14-10 9-11 9-14 12-15 13-17 16-8 7-29 29-7 8-11 13-14 18-13 18-11 16-10 15-11 17-13 21-13 23-14 24-10 18-10 21-4 9-3-1-9-11-8-12-13-18-10-14-22-33-13-21-15-25-10-17-15-26-13-24-12-23-13-25-1-6 4-8 9-10 8-10 12-13 9-11 50-50 8-7 12-11 11-9 9-8 10-8 14-12 8-7 16-13 19-14 17-12 19-13 16-10 13-8 24-14 28-15 23-12 30-14 37-15 24-9 47-16 42-12 45-11 58-12 39-6 48-6 43-4 35-2h28l2-1-13-6-27-8-35-8-58-9-36-4-46-3-30-1h-38l-45 2-47 4-40 6-47 9-52 13-26 8-36 12-30 11-28 11-34 14-33 15-29 14-24 12-22 12-28 16-24 14-19 12-20 14-18 14-15 10-6 2v-8l10-12 8-11 13-16 10-13 11-13 11-12 8-8 7-8 8-8 7-8 20-20 8-7 17-16 14-13 11-9 11-10 11-9 15-13 28-24 17-14 16-13 16-12 11-9 16-12 18-13 16-12 20-14 21-14 25-16 15-10 24-14 16-7 16-4 35-5 47-5 34-2h108l38 3 47 6 36 7 37 10 26 9 30 12 35 15 18 8 16 8 18 10 16 10 17 10-6-10-10-13-21-21-7-8-30-30-8-7-11-10-22-18-13-10-19-13-15-10-17-10-25-12-27-10-19-6-25-6-24-5-21-3-42-3-3-2 9-7 22-10 16-7 72-33 20-8 18-8 28-12 36-14 29-11 28-10 15-5zm410 499-78 12-26 6-20 6-20 9-6 5 3 5 12 9 13 6 26 10 38 14 36 14 32 13 41 16 28 10 27 11h10l3-2-7-9-7-7-17-12-13-10-9-7-11-9-14-12-12-11-6-12v-7l2-3v-9l-5-18-5-11-5-6-5-1z" fill="#FEBF2B"/>
</svg>
